<svg width="20" height="20" viewBox="0 0 20 20" fill="none" xmlns="http://www.w3.org/2000/svg">
<path d="M12.7767 7.22334C13.4986 7.20167 14.1836 6.89968 14.6866 6.38139C15.1896 5.86311 15.4709 5.1693 15.4709 4.44709C15.4709 3.72488 15.1896 3.03106 14.6866 2.51278C14.1836 1.9945 13.4986 1.6925 12.7767 1.67084H7.22335C6.50146 1.6925 5.8164 1.9945 5.31344 2.51278C4.81048 3.03106 4.52917 3.72488 4.52917 4.44709C4.52917 5.1693 4.81048 5.86311 5.31344 6.38139C5.8164 6.89968 6.50146 7.20167 7.22335 7.22334C6.49515 7.23595 5.80104 7.53408 5.29053 8.05351C4.78002 8.57295 4.49396 9.27211 4.49396 10.0004C4.49396 10.7287 4.78002 11.4279 5.29053 11.9473C5.80104 12.4668 6.49515 12.7649 7.22335 12.7775C6.49871 12.7953 5.80972 13.0956 5.30349 13.6144C4.79725 14.1332 4.51388 14.8293 4.51388 15.5542C4.51388 16.279 4.79725 16.9752 5.30349 17.494C5.80972 18.0127 6.49871 18.3131 7.22335 18.3308C7.95978 18.3304 8.6659 18.0376 9.18656 17.5168C9.70721 16.996 9.99979 16.2898 10 15.5533V7.22334H12.7767Z" fill="#F2F2F2"/>
<path d="M12.7767 12.7767C14.3102 12.7767 15.5533 11.5335 15.5533 9.99999C15.5533 8.46648 14.3102 7.22333 12.7767 7.22333C11.2432 7.22333 10 8.46648 10 9.99999C10 11.5335 11.2432 12.7767 12.7767 12.7767Z" fill="#F2F2F2"/>
</svg>
