<svg width="20" height="20" viewBox="0 0 20 20" fill="none" xmlns="http://www.w3.org/2000/svg">
<path d="M3.54167 1.61203e-06H16.4583C16.9236 -0.000448106 17.3843 0.0932018 17.8142 0.275592C18.2441 0.457981 18.6347 0.725531 18.9636 1.06293C19.2926 1.40032 19.5535 1.80094 19.7313 2.24186C19.9091 2.68277 20.0004 3.15533 20 3.63248V16.3675C20.0004 16.8447 19.9091 17.3172 19.7313 17.7581C19.5535 18.1991 19.2926 18.5997 18.9636 18.9371C18.6347 19.2745 18.2441 19.542 17.8142 19.7244C17.3843 19.9068 16.9236 20.0004 16.4583 20H3.54167C3.07645 20.0004 2.6157 19.9068 2.18581 19.7244C1.75592 19.542 1.36532 19.2745 1.03635 18.9371C0.707392 18.5997 0.446532 18.1991 0.268702 17.7581C0.0908717 17.3172 -0.000436903 16.8447 1.57173e-06 16.3675V3.63248C-0.000436903 3.15533 0.0908717 2.68277 0.268702 2.24186C0.446532 1.80094 0.707392 1.40032 1.03635 1.06293C1.36532 0.725531 1.75592 0.457981 2.18581 0.275592C2.6157 0.0932018 3.07645 -0.000448106 3.54167 1.61203e-06Z" fill="#F2F2F2"/>
<path d="M4.5 14.0256V5.23075C4.5 5.17092 4.525 5.13673 4.58333 5.13673C4.725 5.13673 4.85833 5.13673 5.05 5.12818C5.24167 5.11964 5.45833 5.11964 5.68333 5.11109C5.90833 5.10254 6.15 5.10254 6.40833 5.094C6.66667 5.08545 6.91667 5.08545 7.16667 5.08545C7.85 5.08545 8.41667 5.17092 8.88333 5.35041C9.30166 5.49611 9.68312 5.73552 10 6.05126C10.2685 6.32757 10.476 6.65987 10.6083 7.02562C10.7345 7.38181 10.7993 7.75777 10.8 8.13673C10.8 8.87177 10.6333 9.47861 10.3 9.95724C9.96512 10.4352 9.49757 10.7986 8.95833 11C8.39167 11.2137 7.76667 11.2906 7.08333 11.2906C6.88333 11.2906 6.75 11.2906 6.66667 11.282C6.58333 11.2735 6.46667 11.2735 6.30833 11.2735V14.0171C6.31019 14.0311 6.30928 14.0454 6.30565 14.0591C6.30202 14.0728 6.29574 14.0856 6.28719 14.0968C6.27864 14.108 6.26799 14.1172 6.25588 14.1241C6.24376 14.131 6.23043 14.1353 6.21667 14.1367H4.6C4.53333 14.1367 4.5 14.1025 4.5 14.0256ZM6.31667 6.7863V9.6581C6.43333 9.66665 6.54167 9.67519 6.64167 9.67519H7.08333C7.40865 9.67559 7.73202 9.62368 8.04167 9.52135C8.30733 9.44122 8.54467 9.28388 8.725 9.06835C8.9 8.85468 8.98333 8.56408 8.98333 8.18801C8.99117 7.92093 8.92469 7.65708 8.79167 7.42733C8.65272 7.20541 8.44837 7.03475 8.20833 6.94015C7.89549 6.81448 7.56075 6.75629 7.225 6.76921C7.00833 6.76921 6.81667 6.76921 6.65833 6.77776C6.54442 6.77012 6.43008 6.77298 6.31667 6.7863Z" fill="#080808"/>
<path d="M16 9.13676C15.7484 9.00084 15.4789 8.90296 15.2 8.84616C14.8937 8.77501 14.5808 8.73776 14.2667 8.73505C14.098 8.72909 13.9295 8.74926 13.7667 8.79488C13.6629 8.81704 13.5708 8.87796 13.5083 8.96582C13.4662 9.03517 13.4432 9.11491 13.4417 9.19659C13.4455 9.2779 13.4748 9.3558 13.525 9.41881C13.604 9.51383 13.7002 9.5922 13.8083 9.64958C14 9.75215 14.2 9.84616 14.4 9.93163C14.8502 10.0871 15.281 10.2965 15.6833 10.5556C15.957 10.7321 16.1833 10.9759 16.3417 11.265C16.4756 11.5376 16.5414 11.8401 16.5333 12.1453C16.5401 12.5493 16.4267 12.9458 16.2083 13.2821C15.9759 13.6232 15.6516 13.8876 15.275 14.0427C14.8667 14.2222 14.3667 14.3162 13.7667 14.3162C13.3862 14.3178 13.0066 14.2806 12.6333 14.2051C12.3394 14.153 12.0536 14.0611 11.7833 13.9316C11.7543 13.9167 11.7301 13.8933 11.7138 13.8645C11.6975 13.8356 11.6898 13.8025 11.6917 13.7692V12.2821C11.6909 12.2675 11.6936 12.2529 11.6994 12.2395C11.7052 12.2262 11.7139 12.2144 11.725 12.2051C11.7367 12.1981 11.7504 12.1952 11.7639 12.1967C11.7774 12.1982 11.79 12.2042 11.8 12.2137C12.121 12.4078 12.4697 12.5491 12.8333 12.6325C13.1544 12.7182 13.4849 12.7613 13.8167 12.7607C14.1333 12.7607 14.3583 12.718 14.5083 12.641C14.5752 12.6093 14.6319 12.5587 14.6718 12.4951C14.7116 12.4316 14.733 12.3576 14.7333 12.2821C14.7333 12.1624 14.6667 12.0513 14.5333 11.9402C14.4 11.8291 14.125 11.7009 13.7167 11.5385C13.2978 11.3871 12.9 11.1802 12.5333 10.9231C12.2722 10.7322 12.0559 10.484 11.9 10.1966C11.767 9.92665 11.7012 9.62716 11.7083 9.3248C11.7096 8.96009 11.8075 8.60259 11.9917 8.29061C12.2034 7.9475 12.5072 7.67444 12.8667 7.50428C13.2583 7.29916 13.75 7.20514 14.3417 7.20514C14.6875 7.20524 15.0328 7.23095 15.375 7.28206C15.621 7.31621 15.8619 7.38226 16.0917 7.47864C16.1283 7.49195 16.1583 7.51962 16.175 7.55557C16.1846 7.58893 16.1902 7.62337 16.1917 7.65813V9.05129C16.1918 9.0679 16.1881 9.08431 16.1809 9.09916C16.1736 9.11402 16.163 9.12691 16.15 9.13676C16.1015 9.15464 16.0485 9.15464 16 9.13676Z" fill="#080808"/>
</svg>
