<svg width="20" height="20" viewBox="0 0 20 20" fill="none" xmlns="http://www.w3.org/2000/svg">
<path d="M17.7417 3.41664L14.3084 1.74997C14.1812 1.69819 14.0456 1.66996 13.9084 1.66664H13.8417C13.6251 1.66542 13.4142 1.73572 13.2417 1.86664L13.125 1.96664L6.55835 7.95831L3.70002 5.83331C3.57126 5.73481 3.41199 5.68467 3.25002 5.69164C3.09135 5.68984 2.93637 5.73955 2.80835 5.83331L1.89169 6.66664C1.81981 6.73019 1.7625 6.80851 1.72367 6.89624C1.68484 6.98397 1.6654 7.07904 1.66669 7.17498C1.66634 7.27199 1.68616 7.36801 1.7249 7.45695C1.76363 7.54589 1.82043 7.62581 1.89169 7.69164L4.39169 9.94998L1.89169 12.2166C1.82127 12.2822 1.76511 12.3615 1.72671 12.4496C1.68831 12.5378 1.66849 12.633 1.66849 12.7291C1.66849 12.8253 1.68831 12.9205 1.72671 13.0086C1.76511 13.0968 1.82127 13.1761 1.89169 13.2416L2.80835 14.075C2.94657 14.1959 3.12474 14.2612 3.30835 14.2583C3.44939 14.2477 3.58484 14.1987 3.70002 14.1166L6.55835 11.9416L13.125 17.9333C13.293 18.1064 13.518 18.213 13.7584 18.2333H13.9C14.0424 18.2354 14.183 18.201 14.3084 18.1333L17.7417 16.4666C17.9154 16.3835 18.0627 16.2538 18.1671 16.092C18.2716 15.9301 18.3291 15.7425 18.3334 15.55V4.35831C18.3328 4.1617 18.277 3.96919 18.1724 3.80271C18.0678 3.63623 17.9186 3.50246 17.7417 3.41664ZM14.1667 13.725L9.16669 9.94998L14.1667 6.17498V13.725Z" fill="#F2F2F2"/>
</svg>
