<svg width="20" height="20" viewBox="0 0 20 20" fill="none" xmlns="http://www.w3.org/2000/svg">
<path d="M3.54167 1.61203e-06H16.4583C16.9236 -0.000448106 17.3843 0.0932018 17.8142 0.275592C18.2441 0.457981 18.6347 0.725531 18.9636 1.06293C19.2926 1.40032 19.5535 1.80094 19.7313 2.24186C19.9091 2.68277 20.0004 3.15533 20 3.63248V16.3675C20.0004 16.8447 19.9091 17.3172 19.7313 17.7581C19.5535 18.1991 19.2926 18.5997 18.9636 18.9371C18.6347 19.2745 18.2441 19.542 17.8142 19.7244C17.3843 19.9068 16.9236 20.0004 16.4583 20H3.54167C3.07645 20.0004 2.6157 19.9068 2.18581 19.7244C1.75592 19.542 1.36532 19.2745 1.03635 18.9371C0.707392 18.5997 0.446532 18.1991 0.268702 17.7581C0.0908717 17.3172 -0.000436903 16.8447 1.57173e-06 16.3675V3.63248C-0.000436903 3.15533 0.0908717 2.68277 0.268702 2.24186C0.446532 1.80094 0.707392 1.40032 1.03635 1.06293C1.36532 0.725531 1.75592 0.457981 2.18581 0.275592C2.6157 0.0932018 3.07645 -0.000448106 3.54167 1.61203e-06Z" fill="#F2F2F2"/>
<path d="M10.5167 5.25641L8.01667 9.48718L10.6833 13.9744C10.7009 14.0053 10.7068 14.0418 10.7 14.0769C10.6917 14.1111 10.6583 14.0855 10.6083 14.094H8.7C8.56667 14.094 8.475 14.0855 8.41667 14C8.24167 13.641 8.05834 13.2906 7.88334 12.9316C7.70834 12.5726 7.51667 12.2222 7.31667 11.8547C7.11667 11.4872 6.91667 11.1197 6.71667 10.7436H6.7C6.525 11.1111 6.33334 11.4786 6.14167 11.8462C5.95 12.2137 5.75834 12.5812 5.575 12.9402C5.39167 13.2991 5.19167 13.6667 5 14.0171C4.96667 14.1026 4.9 14.1111 4.80834 14.1111H2.975C2.94167 14.1111 2.91667 14.1282 2.91667 14.0855C2.91295 14.0695 2.91251 14.0528 2.91538 14.0367C2.91825 14.0205 2.92437 14.0051 2.93334 13.9914L5.525 9.63248L3 5.24786C2.975 5.21367 2.96667 5.17949 2.98334 5.16239C2.9935 5.15021 3.00639 5.14073 3.0209 5.13478C3.03542 5.12882 3.05112 5.12657 3.06667 5.1282H4.95834C4.99775 5.12908 5.03692 5.13482 5.075 5.1453C5.10839 5.16372 5.13697 5.1901 5.15834 5.22222C5.31667 5.58974 5.5 5.95726 5.69167 6.32478C5.88334 6.69231 6.08334 7.05128 6.29167 7.41025C6.5 7.76923 6.675 8.1282 6.85 8.49572H6.86667C7.04167 8.11966 7.225 7.75213 7.40834 7.39316C7.59167 7.03419 7.78334 6.67521 7.975 6.31624C8.16667 5.95726 8.35 5.58974 8.53334 5.23931C8.53966 5.20567 8.55737 5.1754 8.58334 5.15384C8.61634 5.13517 8.65473 5.12911 8.69167 5.13675H10.45C10.4599 5.13448 10.47 5.13423 10.48 5.13601C10.4899 5.1378 10.4994 5.14158 10.508 5.14713C10.5165 5.15269 10.5238 5.15992 10.5296 5.16841C10.5354 5.17689 10.5395 5.18647 10.5417 5.19658C10.55 5.20513 10.5333 5.23931 10.5167 5.25641Z" fill="#080808"/>
<path d="M14.3667 14.2735C13.749 14.2839 13.1368 14.1525 12.575 13.8889C12.0523 13.6382 11.6143 13.2335 11.3167 12.7265C11.0084 12.2051 10.8584 11.5555 10.8584 10.7778C10.8499 10.1453 11.0083 9.52215 11.3167 8.97435C11.6329 8.41759 12.091 7.95963 12.6417 7.64956C13.225 7.31623 13.925 7.15384 14.75 7.15384C14.8085 7.15316 14.8669 7.15601 14.925 7.16238C15 7.17093 15.0834 7.17093 15.1834 7.17948V4.47862C15.1834 4.41879 15.2084 4.38461 15.2667 4.38461H16.9584C16.977 4.38201 16.996 4.38673 17.0114 4.39782C17.0269 4.4089 17.0377 4.42555 17.0417 4.44444V12.5983C17.0417 12.7521 17.05 12.9231 17.0584 13.1111C17.0667 13.2991 17.0834 13.4615 17.0917 13.6068C17.0935 13.6357 17.0864 13.6644 17.0714 13.6889C17.0565 13.7135 17.0344 13.7326 17.0084 13.7436C16.5719 13.9317 16.1163 14.0693 15.65 14.1538C15.2265 14.2322 14.7971 14.2722 14.3667 14.2735ZM15.1834 12.5641V8.80341C15.1092 8.78504 15.034 8.77078 14.9584 8.76067C14.8667 8.75213 14.775 8.74358 14.6834 8.74358C14.3567 8.7398 14.0339 8.81599 13.7417 8.9658C13.4569 9.11133 13.2131 9.32904 13.0334 9.59828C12.85 9.87179 12.7584 10.2393 12.7584 10.6838C12.7511 10.9837 12.7992 11.2824 12.9 11.5641C12.9806 11.7919 13.1086 11.9989 13.275 12.1709C13.4357 12.3282 13.6296 12.4452 13.8417 12.5128C14.0649 12.5878 14.2985 12.6253 14.5334 12.6239C14.6584 12.6239 14.775 12.6154 14.8834 12.6068C14.9852 12.6143 15.0874 12.5997 15.1834 12.5641Z" fill="#080808"/>
</svg>
