<svg width="20" height="20" viewBox="0 0 20 20" fill="none" xmlns="http://www.w3.org/2000/svg">
<path d="M11.45 3.52499C10.75 2.69165 10.1417 1.85832 10.025 1.67499H10C9.88334 1.84999 9.275 2.69165 8.575 3.52499C2.575 11.1833 9.525 16.35 9.525 16.35L9.58334 16.3917C9.63334 17.1833 9.76667 18.3333 9.76667 18.3333H10.2833C10.2833 18.3333 10.4083 17.1917 10.4583 16.3917L10.5167 16.3417C10.5167 16.3417 17.45 11.1833 11.45 3.52499ZM10 16.2333C9.85395 16.1133 9.71998 15.9794 9.6 15.8333L10 7.49999L10.375 15.8333C10.2626 15.9779 10.137 16.1118 10 16.2333Z" fill="#F2F2F2"/>
</svg>
