<svg width="20" height="20" viewBox="0 0 20 20" fill="none" xmlns="http://www.w3.org/2000/svg">
<path fill-rule="evenodd" clip-rule="evenodd" d="M9.54749 9.00006C9.44165 9.00006 9.26526 9.03313 9.18433 9.16542L8.05957 10.9922L8.67175 10.9961L9.54541 9.57786L9.96045 10.2471L9.16357 10.2452L9.47485 10.7413L10.2676 10.7451L10.417 10.9922H11.0312L9.90234 9.15958C9.78821 8.99227 9.63879 9.00006 9.54749 9.00006ZM12.0522 9.00006C11.4878 9.00006 11.0312 9.44557 11.0312 9.99614C11.0312 10.5467 11.4878 10.9922 12.0522 10.9922L13.1562 11L13.6875 10.4942L12.046 10.4981C11.7472 10.4942 11.5687 10.2276 11.5625 9.99808C11.5542 9.75101 11.7534 9.49226 12.0502 9.48837L13.1562 9.50199L13.6875 9.00006H12.0522ZM3.0625 9.00395C2.50012 9.00395 2 9.4767 2 10.0273C2 10.5778 2.50012 10.9961 3.0625 10.9961H4.125C4.68738 10.9961 5.1875 10.5506 5.1875 10C5.1875 9.44946 4.68738 9.00395 4.125 9.00395H3.0625ZM5.71875 9.00395V10.9961H6.25V9.50199H6.93066C7.13196 9.50004 7.3125 9.57008 7.3125 9.74906C7.3125 9.9261 7.13611 10.002 6.95557 10.002L6.25 10L7.15064 11L7.84375 10.9961L7.30005 10.3969C7.30005 10.3969 7.8396 10.249 7.84375 9.74128C7.84583 9.32106 7.57398 9.00784 7.11743 9.00395H5.71875ZM14.75 9.00395H14.2188V10.8055C14.2188 10.8541 14.2374 10.9027 14.2769 10.9397C14.3121 10.9747 14.364 10.9961 14.418 10.9961L15.8125 11L16.3438 10.4981H14.75V9.00395ZM17.3004 9.00784C16.736 9.00784 16.2794 9.45335 16.2794 10.0039C16.2794 10.5545 16.736 11 17.3004 11H18.4688L19 10.502H17.2921C17.1635 10.5156 16.9207 10.4144 16.8605 10.2004L18.4688 10.2179L18.9938 9.76463C18.9938 9.76463 17.4125 9.77241 16.8688 9.77435C16.9186 9.54479 17.2921 9.50588 17.2921 9.50588H18.4688L19 9.00784H17.3004ZM3.0625 9.50199H4.125C4.23084 9.50393 4.60852 9.65373 4.60645 9.99808C4.60437 10.3716 4.25989 10.4961 4.125 10.4981H3.0625C2.8197 10.4961 2.57275 10.2335 2.57275 10.0078C2.57275 9.72766 2.85498 9.4981 3.0625 9.50199Z" fill="#F2F2F2"/>
</svg>
