<svg width="20" height="20" viewBox="0 0 20 20" fill="none" xmlns="http://www.w3.org/2000/svg">
<path d="M8.95001 10.7417V10.65C9.00001 10.525 9.05001 10.4083 9.10835 10.2917C9.56957 9.31691 9.64692 8.20422 9.32501 7.17501C9.3082 7.02802 9.24631 6.88984 9.14784 6.77943C9.04936 6.66902 8.91913 6.59179 8.77501 6.55834C8.15505 6.51519 7.54014 6.69552 7.04168 7.06668V7.21668C7.09642 7.886 7.07966 8.55924 6.99168 9.22501C6.94439 9.52383 6.96639 9.82952 7.05597 10.1185C7.14555 10.4075 7.30033 10.672 7.50835 10.8917C7.66158 11.0547 7.84605 11.1852 8.05079 11.2754C8.25552 11.3656 8.47631 11.4136 8.70001 11.4167C8.77121 11.1874 8.85466 10.962 8.95001 10.7417ZM8.33335 7.15001C8.28653 7.09696 8.25996 7.02908 8.25835 6.95834C8.26341 6.93746 8.27267 6.91782 8.28556 6.90063C8.29845 6.88344 8.31471 6.86905 8.33335 6.85834C8.45634 6.79451 8.59725 6.77396 8.73335 6.80001C8.94168 6.80001 9.15001 6.93334 9.13335 7.08334C9.10224 7.16589 9.04622 7.23671 8.97305 7.28599C8.89989 7.33526 8.8132 7.36055 8.72501 7.35834H8.67501C8.53809 7.33673 8.41527 7.26184 8.33335 7.15001Z" fill="#F2F2F2"/>
<path d="M6.56665 9.16667C6.64182 8.53065 6.65856 7.88907 6.61665 7.25V7.01667C6.5838 5.64097 7.03836 4.29796 7.89998 3.225C7.06664 2.95833 5.06665 2.39167 3.84165 3.30833C3.09165 3.84167 2.74165 4.84167 2.81665 6.26667C2.98265 7.51163 3.26158 8.73891 3.64998 9.93333C4.21665 11.7833 4.85831 12.95 5.40831 13.1417C5.49164 13.1417 5.74998 13.25 6.12498 12.8C6.65831 12.1667 7.14998 11.625 7.37498 11.3833L7.21664 11.225C6.95564 10.9561 6.76097 10.6301 6.64813 10.2727C6.53529 9.9154 6.50739 9.53667 6.56665 9.16667ZM9.48331 12C9.34998 11.95 9.28331 11.9167 9.13331 12.0917C9.04413 12.1814 8.96325 12.279 8.89164 12.3833C8.59998 12.7417 8.47498 12.8667 7.63331 13.0417C7.51932 13.0606 7.40761 13.0913 7.29998 13.1333C7.39264 13.1982 7.49755 13.2436 7.60831 13.2667C7.98122 13.3928 8.38474 13.3961 8.75968 13.2761C9.13461 13.1562 9.46124 12.9192 9.69165 12.6C9.71317 12.5544 9.72433 12.5046 9.72433 12.4542C9.72433 12.4037 9.71317 12.3539 9.69165 12.3083C9.66528 12.1822 9.59047 12.0715 9.48331 12ZM14.725 7.15C14.7637 6.93254 14.7859 6.71247 14.7916 6.49167C14.2416 6.425 13.6083 6.43333 13.3583 6.79167C12.875 7.48333 13.825 9.19167 14.1916 9.91667C14.2722 10.0453 14.3446 10.1789 14.4083 10.3167C14.4416 10.4066 14.4834 10.4931 14.5333 10.575C14.7503 10.0091 14.7967 9.39198 14.6666 8.8C14.6268 8.51006 14.6073 8.21767 14.6083 7.925C14.6269 7.66401 14.6659 7.40488 14.725 7.15ZM14.2583 7.01667C14.1861 7.09024 14.093 7.13972 13.9916 7.15833H13.9416C13.8624 7.15864 13.785 7.13491 13.7195 7.09028C13.654 7.04564 13.6036 6.9822 13.575 6.90833C13.575 6.79167 13.7416 6.70833 13.9416 6.675C14.1416 6.64167 14.3416 6.675 14.3583 6.8C14.3545 6.8825 14.3186 6.96025 14.2583 7.01667Z" fill="#F2F2F2"/>
<path d="M14.1666 4.0667C14.7156 4.67717 15.1075 5.41228 15.3083 6.20836C15.3127 6.24991 15.3127 6.29181 15.3083 6.33336C15.311 6.62951 15.2859 6.92525 15.2333 7.2167C15.1938 7.45384 15.1687 7.69317 15.1583 7.93336C15.1566 8.21222 15.1761 8.4908 15.2166 8.7667C15.385 9.53135 15.2788 10.3308 14.9166 11.025L14.975 11.0917C16.825 8.18336 17.475 4.80836 16.8833 4.0667C16.5043 3.59022 16.0209 3.20717 15.4704 2.94709C14.9199 2.68702 14.3171 2.55688 13.7083 2.5667C13.252 2.56033 12.7964 2.60505 12.35 2.70003C13.0499 3.01433 13.6706 3.4813 14.1666 4.0667Z" fill="#F2F2F2"/>
<path d="M18.0416 11.6666C17.9833 11.5 17.7333 10.9583 16.8166 11.15C16.5422 11.2084 16.2635 11.2446 15.9833 11.2583C16.7356 9.98603 17.3131 8.61817 17.7 7.19164C18.0083 5.98331 18.25 4.36664 17.6083 3.54164C17.137 2.9438 16.5336 2.46336 15.8453 2.13803C15.1571 1.8127 14.4028 1.65135 13.6416 1.66664C12.9477 1.66219 12.2568 1.76048 11.5916 1.95831C11.1925 1.88816 10.7885 1.84915 10.3833 1.84164C9.66601 1.8269 8.95795 2.00536 8.33332 2.35831C7.85147 2.19952 7.35843 2.07695 6.85831 1.99164C6.2641 1.84014 5.64533 1.81077 5.03944 1.90531C4.43354 1.99984 3.85313 2.21632 3.33332 2.54164C2.29998 3.26664 1.82498 4.53331 1.90832 6.30831C2.0674 7.62814 2.34633 8.93074 2.74165 10.2C2.97677 10.9941 3.28649 11.7642 3.66665 12.5C3.93754 13.1776 4.46015 13.7241 5.12498 14.025C5.36594 14.1034 5.62347 14.1162 5.87102 14.0621C6.11857 14.0079 6.34719 13.8886 6.53332 13.7166C6.75636 13.9593 7.04636 14.1304 7.36665 14.2083C8.0144 14.3868 8.70301 14.3458 9.32498 14.0916V14.7666C9.31798 15.4311 9.40495 16.0932 9.58332 16.7333C9.58566 16.7694 9.58566 16.8056 9.58332 16.8416C9.69443 17.2287 9.89741 17.5832 10.175 17.875C10.5106 18.189 10.9573 18.3569 11.4166 18.3416C11.613 18.3424 11.8088 18.32 12 18.275C12.3622 18.2309 12.7118 18.1144 13.0282 17.9326C13.3445 17.7508 13.6212 17.5074 13.8416 17.2166C14.4061 16.2002 14.6691 15.0439 14.6 13.8833V13.6666H14.7416C15.4252 13.714 16.1104 13.5998 16.7416 13.3333C17.1166 13.1416 18.3333 12.5 18.0416 11.6666ZM16.5333 12.8916C16.0567 13.0836 15.5471 13.1798 15.0333 13.175C14.8109 13.1809 14.5889 13.1528 14.375 13.0916C14.2916 13.875 14.1083 15.3333 14 15.9416C13.968 16.4324 13.7613 16.8956 13.4174 17.2472C13.0734 17.5987 12.615 17.8155 12.125 17.8583C11.9441 17.8966 11.7598 17.9161 11.575 17.9166C11.2122 17.9082 10.862 17.7815 10.5777 17.5559C10.2935 17.3303 10.0906 17.0181 9.99998 16.6666C9.78514 15.5525 9.70679 14.4164 9.76665 13.2833C9.36097 13.65 8.82998 13.8469 8.28331 13.8333C8.01879 13.8289 7.75577 13.7925 7.49998 13.725C7.42498 13.725 6.77498 13.5333 6.78332 13.1166C6.79165 12.7 7.33332 12.625 7.53332 12.5833C8.24998 12.4333 8.29998 12.375 8.52498 12.0916C8.57406 12.0221 8.62692 11.9554 8.68332 11.8916C8.36001 11.8795 8.0437 11.794 7.75832 11.6416C7.56665 11.85 7.04165 12.4166 6.47498 13.0916C6.37199 13.2448 6.23483 13.372 6.0743 13.4631C5.91378 13.5542 5.73429 13.6067 5.54998 13.6166C5.45326 13.6305 5.35504 13.6305 5.25832 13.6166C4.52498 13.3333 3.83332 12.125 3.19998 9.99998C2.80677 8.76993 2.52781 7.50625 2.36665 6.22498C2.28332 4.62498 2.69998 3.49164 3.59165 2.89164C5.19165 1.75831 7.75832 2.63331 8.34165 2.84164C8.93519 2.44855 9.63898 2.25581 10.35 2.29164C10.7437 2.29206 11.1357 2.34246 11.5166 2.44164C12.1872 2.21343 12.8917 2.10072 13.6 2.10831C14.288 2.08939 14.971 2.23002 15.5956 2.51917C16.2201 2.80832 16.7693 3.23815 17.2 3.77498C17.775 4.50831 17.3916 6.27498 17.2 7.01664C16.7724 8.6159 16.0946 10.1375 15.1916 11.525C15.325 11.6166 15.7333 11.7833 16.8583 11.525C17.2416 11.4416 17.4666 11.525 17.5416 11.7333C17.725 12.1916 16.9583 12.675 16.5333 12.875V12.8916Z" fill="#F2F2F2"/>
<path d="M14.525 11.325C14.3126 11.0742 14.1385 10.7934 14.0083 10.4917C14.0083 10.4333 13.9083 10.2917 13.8167 10.1333C13.3333 9.3 12.325 7.45 12.9833 6.51666C13.205 6.28099 13.486 6.10941 13.7969 6.01995C14.1078 5.9305 14.437 5.92648 14.75 6.00833C14.5358 5.41725 14.2168 4.86961 13.8083 4.39166C13.3919 3.8786 12.8677 3.46336 12.273 3.17535C11.6782 2.88734 11.0274 2.73359 10.3667 2.725C9.97675 2.70042 9.58601 2.75821 9.2199 2.8946C8.85378 3.031 8.52047 3.24295 8.24167 3.51666C7.53215 4.35253 7.12678 5.40415 7.09167 6.5L7.21667 6.43333C7.56314 6.24645 7.94219 6.12764 8.33334 6.08333C8.49521 6.04584 8.66307 6.04213 8.82644 6.07244C8.98981 6.10275 9.14517 6.16643 9.28281 6.2595C9.42045 6.35257 9.53743 6.47302 9.62642 6.61334C9.7154 6.75365 9.7745 6.91081 9.80001 7.075C10.1426 8.20202 10.0565 9.41592 9.55834 10.4833C9.50416 10.5885 9.45684 10.6971 9.41667 10.8083V10.9C9.33334 11.125 9.25834 11.3333 9.20834 11.5083C9.36888 11.4777 9.53497 11.4981 9.68334 11.5667C9.80869 11.6263 9.91972 11.7123 10.0089 11.8187C10.098 11.9251 10.1632 12.0495 10.2 12.1833V12.3167C10.2041 12.3415 10.2041 12.3668 10.2 12.3917C10.1102 13.7554 10.1717 15.1248 10.3833 16.475C10.4209 16.6514 10.4961 16.8175 10.6039 16.9621C10.7117 17.1066 10.8495 17.2261 11.0078 17.3124C11.1661 17.3987 11.3412 17.4497 11.5211 17.462C11.701 17.4742 11.8815 17.4474 12.05 17.3833C12.4468 17.3566 12.8194 17.183 13.0952 16.8964C13.371 16.6099 13.5301 16.2309 13.5417 15.8333C13.6667 15.1 13.9167 13.0417 13.95 12.6C13.95 11.7167 14.3833 11.5417 14.65 11.4667L14.525 11.325Z" fill="#F2F2F2"/>
<path d="M15 11.9417L14.9334 11.8917H14.8334C14.6167 11.95 14.4167 12.0083 14.4417 12.5583C14.6876 12.6559 14.9541 12.6903 15.2167 12.6583C15.6107 12.6418 15.9993 12.5601 16.3667 12.4167C16.6077 12.3079 16.8299 12.1617 17.025 11.9833C16.3671 12.214 15.6479 12.1992 15 11.9417Z" fill="#F2F2F2"/>
</svg>
