<svg width="20" height="20" viewBox="0 0 20 20" fill="none" xmlns="http://www.w3.org/2000/svg">
<path fill-rule="evenodd" clip-rule="evenodd" d="M9.54289 1.36918C9.82581 1.21043 10.1741 1.21043 10.4566 1.36918C11.8546 2.15377 16.0612 4.51543 17.4596 5.30002C17.7425 5.45835 17.9166 5.75168 17.9166 6.06918C17.9166 7.63835 17.9166 12.3613 17.9166 13.9304C17.9166 14.2479 17.7425 14.5413 17.4596 14.7C16.0616 15.4846 11.855 17.8463 10.4566 18.6309C10.1737 18.7896 9.8254 18.7896 9.54289 18.6309C8.14498 17.8463 3.93831 15.4846 2.53998 14.7C2.25748 14.5413 2.08331 14.2484 2.08331 13.9309C2.08331 12.3617 2.08331 7.63877 2.08331 6.0696C2.08331 5.7521 2.25748 5.45877 2.5404 5.30002C3.9379 4.51543 8.1454 2.15377 9.54289 1.36918Z" fill="#F2F2F2"/>
<path fill-rule="evenodd" clip-rule="evenodd" d="M2.20998 14.335C2.09915 14.1867 2.08331 14.0458 2.08331 13.8562C2.08331 12.2962 2.08331 7.60041 2.08331 6.03999C2.08331 5.72416 2.25706 5.43249 2.53915 5.27499C3.93206 4.49499 8.12456 2.14708 9.51748 1.36666C9.79956 1.20875 10.1816 1.21208 10.4637 1.37C11.8566 2.15 16.035 4.47791 17.4279 5.25791C17.5404 5.32124 17.6262 5.39749 17.7029 5.49791L2.20998 14.335Z" fill="#F2F2F2"/>
<path fill-rule="evenodd" clip-rule="evenodd" d="M10 4.16669C13.2196 4.16669 15.8334 6.78044 15.8334 10C15.8334 13.2196 13.2196 15.8334 10 15.8334C6.78044 15.8334 4.16669 13.2196 4.16669 10C4.16669 6.78044 6.78044 4.16669 10 4.16669ZM10 7.08335C11.6096 7.08335 12.9167 8.39002 12.9167 10C12.9167 11.6096 11.6096 12.9167 10 12.9167C8.39044 12.9167 7.08335 11.6096 7.08335 10C7.08335 8.39002 8.39002 7.08335 10 7.08335Z" fill="#080808"/>
<path fill-rule="evenodd" clip-rule="evenodd" d="M17.7021 5.50208C17.9171 5.70333 17.9129 6.00666 17.9129 6.24541C17.9129 7.82666 17.8996 12.3242 17.9167 13.9054C17.9184 14.0704 17.8638 14.2442 17.7821 14.375L9.83044 9.99999L17.7021 5.50208Z" fill="#F2F2F2"/>
</svg>
