<svg width="20" height="20" viewBox="0 0 20 20" fill="none" xmlns="http://www.w3.org/2000/svg">
<path d="M3.15832 8.47502C3.12851 8.46546 3.09646 8.46546 3.06665 8.47502L2.89999 8.70002H5.83332C5.84985 8.69767 5.86573 8.69204 5.88005 8.68345C5.89436 8.67487 5.90681 8.6635 5.91665 8.65002L6.05832 8.43336V8.39169L3.15832 8.47502ZM1.93332 9.21669C1.91883 9.2105 1.90324 9.20731 1.88749 9.20731C1.87173 9.20731 1.85614 9.2105 1.84165 9.21669L1.67499 9.43336V9.47502H5.50832C5.52455 9.47594 5.54064 9.47157 5.55417 9.46255C5.5677 9.45353 5.57793 9.44036 5.58332 9.42502L5.64999 9.23336V9.18336L1.93332 9.21669ZM3.83332 10C3.8165 10.0013 3.8002 10.0065 3.78573 10.0152C3.77127 10.0238 3.75903 10.0358 3.74999 10.05L3.64165 10.25V10.3H5.43332C5.44818 10.2983 5.46201 10.2915 5.47259 10.281C5.48318 10.2704 5.48989 10.2565 5.49165 10.2417V10.05C5.49165 10.05 5.49166 9.99169 5.44165 9.99169L3.83332 10ZM17.1583 7.44169C16.8198 7.22052 16.4403 7.06966 16.0423 6.99808C15.6443 6.9265 15.236 6.93566 14.8417 7.02502C14.3924 7.08915 13.9606 7.24233 13.5713 7.47558C13.1821 7.70883 12.8434 8.01746 12.575 8.38336C12.3274 8.69706 12.1383 9.05272 12.0167 9.43336H9.39999C9.35696 9.4322 9.31463 9.44439 9.27882 9.46827C9.24301 9.49215 9.21547 9.52653 9.19999 9.56669C9.08332 9.77502 8.89165 10.2 8.78332 10.45C8.67499 10.7 8.78332 10.6917 8.93332 10.6917H10.5C10.4358 10.7973 10.3634 10.8976 10.2833 10.9917C10.1199 11.1924 9.90751 11.3476 9.66671 11.4425C9.4259 11.5373 9.16473 11.5686 8.90832 11.5334C8.60133 11.4908 8.32034 11.3379 8.11789 11.1033C7.91544 10.8686 7.80539 10.5683 7.80832 10.2584C7.79684 9.95037 7.86808 9.64494 8.01463 9.37382C8.16118 9.10269 8.3777 8.87579 8.64165 8.71669C8.85248 8.56275 9.10154 8.46968 9.36165 8.44764C9.62176 8.42559 9.88293 8.47543 10.1167 8.59169C10.2625 8.66617 10.3904 8.77136 10.4917 8.90002C10.6 9.02502 10.6083 9.01669 10.7333 8.98336L12.0917 8.62502C12.1917 8.62502 12.225 8.55836 12.175 8.49169C11.9849 8.02175 11.6565 7.62069 11.2333 7.34169C10.9197 7.13516 10.5677 6.99403 10.1982 6.92673C9.82882 6.85943 9.44961 6.86735 9.08332 6.95002C8.17274 7.10063 7.35509 7.596 6.79999 8.33336C6.53311 8.66345 6.33513 9.04371 6.21776 9.45164C6.10039 9.85958 6.06601 10.2869 6.11665 10.7084C6.1501 11.0628 6.25884 11.4059 6.43561 11.7149C6.61238 12.0239 6.85309 12.2916 7.14165 12.5C7.45071 12.732 7.80325 12.8995 8.17832 12.9926C8.55339 13.0856 8.94333 13.1023 9.32499 13.0417C9.78911 12.9867 10.2368 12.8361 10.6398 12.5994C11.0429 12.3628 11.3925 12.0452 11.6667 11.6667C11.7981 11.486 11.9125 11.2935 12.0083 11.0917C12.1436 11.5991 12.4351 12.051 12.8417 12.3834C13.3973 12.8492 14.0999 13.1031 14.825 13.1C15.0333 13.1 15.25 13.1 15.475 13.025C16.2117 12.8796 16.888 12.5168 17.4167 11.9834C17.7794 11.6361 18.0524 11.2059 18.2121 10.7297C18.3717 10.2536 18.4134 9.7458 18.3333 9.25002C18.2848 8.88002 18.1542 8.52556 17.9508 8.21265C17.7475 7.89973 17.4767 7.63631 17.1583 7.44169ZM15.675 11.3834C15.4725 11.4921 15.2479 11.5531 15.0183 11.5618C14.7886 11.5704 14.5601 11.5265 14.35 11.4334C14.0664 11.3045 13.8365 11.0811 13.6997 10.8013C13.5629 10.5216 13.5276 10.2029 13.6 9.90002C13.6653 9.55201 13.8337 9.23166 14.0834 8.98054C14.333 8.72941 14.6524 8.5591 15 8.49169C15.1805 8.44118 15.3697 8.42956 15.555 8.45757C15.7404 8.48559 15.9177 8.55261 16.0752 8.65421C16.2327 8.75582 16.3669 8.88969 16.4688 9.04698C16.5708 9.20427 16.6382 9.38141 16.6667 9.56669C16.6715 9.65551 16.6715 9.74453 16.6667 9.83336C16.6606 10.1581 16.5648 10.4748 16.3898 10.7484C16.2147 11.022 15.9673 11.2418 15.675 11.3834Z" fill="#F2F2F2"/>
</svg>
