<svg width="20" height="20" viewBox="0 0 20 20" fill="none" xmlns="http://www.w3.org/2000/svg">
<path d="M2.5 2.5H17.5V17.5H2.5V2.5ZM16.2708 13.9225C16.1617 13.2383 15.7158 12.6633 14.3942 12.1267C13.9342 11.9108 13.4233 11.7617 13.27 11.415C13.2133 11.2083 13.205 11.0967 13.2417 10.9742C13.3358 10.5708 13.8142 10.45 14.1892 10.5617C14.4333 10.6367 14.6583 10.8242 14.7992 11.125C15.445 10.7025 15.445 10.7025 15.8958 10.4217C15.7267 10.16 15.6425 10.0458 15.53 9.93333C15.1358 9.49333 14.6108 9.26833 13.7583 9.2875L13.3183 9.34333C12.8958 9.44667 12.4925 9.6725 12.2492 9.97167C11.5367 10.7783 11.7425 12.1842 12.605 12.7667C13.4575 13.4042 14.7058 13.5442 14.865 14.1442C15.015 14.8758 14.3217 15.11 13.6358 15.0258C13.13 14.9125 12.8483 14.66 12.5392 14.1908L11.3958 14.8475C11.5267 15.1467 11.6767 15.2783 11.9017 15.5408C12.9892 16.6375 15.7083 16.5817 16.1958 14.9125C16.2133 14.8567 16.3458 14.4725 16.2425 13.8817L16.2708 13.9225ZM10.6567 9.39417H9.25167C9.25167 10.605 9.24583 11.8092 9.24583 13.0225C9.24583 13.7925 9.285 14.4992 9.15917 14.7167C8.95333 15.1475 8.42083 15.0925 8.18 15.0158C7.9325 14.8942 7.80667 14.725 7.66083 14.4817C7.62167 14.4167 7.5925 14.36 7.58167 14.36L6.44167 15.0633C6.6325 15.4575 6.91083 15.7958 7.27 16.0108C7.80417 16.33 8.52167 16.4333 9.27333 16.265C9.76333 16.1233 10.1858 15.8325 10.405 15.3825C10.725 14.8017 10.6567 14.0883 10.6542 13.2917C10.6608 12.0075 10.6542 10.7225 10.6542 9.42917L10.6567 9.39417Z" fill="#F2F2F2"/>
</svg>
