<svg width="20" height="20" viewBox="0 0 20 20" fill="none" xmlns="http://www.w3.org/2000/svg">
<path d="M7.98747 9.74333H11.5941C11.5941 9.74333 13.6208 9.77583 13.6208 7.785V4.4925C13.6208 4.4925 13.9283 2.5 9.94664 2.5C6.13497 2.5 6.37247 4.1525 6.37247 4.1525L6.37747 5.865H10.0133V6.37917H4.93331C4.93331 6.37917 2.49414 6.1025 2.49414 9.9475C2.49414 13.7925 4.62331 13.6558 4.62331 13.6558H5.89331V11.8717C5.89331 11.8717 5.82414 9.74333 7.98747 9.74333ZM7.94081 4.96C7.76731 4.96 7.60092 4.89108 7.47824 4.7684C7.35556 4.64572 7.28664 4.47933 7.28664 4.30583C7.28664 4.13234 7.35556 3.96595 7.47824 3.84327C7.60092 3.72059 7.76731 3.65167 7.94081 3.65167C8.1143 3.65167 8.28069 3.72059 8.40337 3.84327C8.52605 3.96595 8.59497 4.13234 8.59497 4.30583C8.59497 4.47933 8.52605 4.64572 8.40337 4.7684C8.28069 4.89108 8.1143 4.96 7.94081 4.96Z" fill="#F2F2F2"/>
<path d="M15.3767 6.27665H14.1067V8.06082C14.1067 8.06082 14.1758 10.1892 12.0125 10.1892H8.40583C8.40583 10.1892 6.37916 10.1558 6.37916 12.1475V15.44C6.37916 15.44 6.07166 17.4325 10.0533 17.4325C13.8642 17.4325 13.6267 15.78 13.6267 15.78L13.6217 14.0683H9.98583V13.5542H15.0667C15.0667 13.5542 17.5058 13.8308 17.5058 9.98582C17.5058 6.14082 15.3767 6.27665 15.3767 6.27665ZM12.0592 14.9733C12.2327 14.9733 12.399 15.0422 12.5217 15.1649C12.6444 15.2876 12.7133 15.454 12.7133 15.6275C12.7133 15.801 12.6444 15.9674 12.5217 16.0901C12.399 16.2127 12.2327 16.2817 12.0592 16.2817C11.8857 16.2817 11.7193 16.2127 11.5966 16.0901C11.4739 15.9674 11.405 15.801 11.405 15.6275C11.405 15.454 11.4739 15.2876 11.5966 15.1649C11.7193 15.0422 11.8857 14.9733 12.0592 14.9733Z" fill="#F2F2F2"/>
</svg>
