<svg width="20" height="20" viewBox="0 0 20 20" fill="none" xmlns="http://www.w3.org/2000/svg">
<path d="M10 10.8584C10.8215 10.8584 11.4875 10.1924 11.4875 9.37086C11.4875 8.54934 10.8215 7.88336 10 7.88336C9.17849 7.88336 8.51251 8.54934 8.51251 9.37086C8.51251 10.1924 9.17849 10.8584 10 10.8584Z" fill="#F2F2F2"/>
<path d="M5.83499 12.3283L5.50582 12.2442C3.06082 11.6267 1.65833 10.5767 1.65833 9.36751C1.65833 8.15751 3.06166 7.10834 5.50582 6.49084L5.83499 6.40751L5.92749 6.73334C6.17461 7.58642 6.49122 8.41782 6.87416 9.21918L6.94499 9.36751L6.87416 9.51584C6.49082 10.3183 6.17333 11.15 5.92749 12.0033L5.83499 12.3283ZM5.35416 7.24918C3.49666 7.77251 2.35583 8.57084 2.35583 9.36751C2.35583 10.1625 3.49583 10.9617 5.35416 11.4842C5.58166 10.7608 5.85666 10.0533 6.17499 9.36751C5.85435 8.68053 5.58013 7.97284 5.35416 7.24918ZM14.1642 12.3283L14.0725 12.0017C13.8247 11.1484 13.5078 10.3168 13.125 9.51501L13.0542 9.36751L13.125 9.21834C13.5083 8.41751 13.8242 7.58501 14.0725 6.73168L14.1642 6.40668L14.4933 6.49001C16.9392 7.10751 18.3408 8.15668 18.3408 9.36751C18.3408 10.5775 16.9383 11.6267 14.4933 12.2442L14.1642 12.3283ZM13.8225 9.36751C14.1558 10.0892 14.4333 10.7992 14.645 11.4842C16.5033 10.9617 17.6442 10.1625 17.6442 9.36751C17.6442 8.57084 16.5042 7.77334 14.645 7.24918C14.4177 7.97261 14.143 8.68026 13.8225 9.36751Z" fill="#F2F2F2"/>
<path d="M5.34914 7.24581L5.25748 6.92081C4.56914 4.49748 4.77748 2.76165 5.82998 2.15665C6.85914 1.56081 8.51498 2.26498 10.2491 4.04415L10.4858 4.28748L10.2491 4.52998C9.63321 5.17055 9.07025 5.86003 8.56581 6.59165L8.47164 6.72664L8.30831 6.73998C7.4213 6.80964 6.54144 6.9515 5.67748 7.16415L5.34914 7.24581ZM6.66748 2.63831C6.48081 2.63831 6.31581 2.67915 6.17664 2.75915C5.48664 3.15665 5.36498 4.54081 5.83998 6.40915C6.58248 6.24498 7.33165 6.12748 8.08664 6.06165C8.52374 5.44169 9.00057 4.85073 9.51414 4.29248C8.42831 3.23665 7.40331 2.63831 6.66748 2.63831ZM13.3316 16.7916C12.3416 16.7916 11.07 16.045 9.74998 14.69L9.51414 14.4475L9.74998 14.2058C10.366 13.5642 10.9292 12.8739 11.4341 12.1416L11.5275 12.0083L11.6891 11.9925C12.5765 11.924 13.4567 11.7827 14.3208 11.57L14.65 11.4866L14.7425 11.8125C15.4275 14.2341 15.22 15.9725 14.1691 16.5775C13.914 16.7221 13.6249 16.796 13.3316 16.7916ZM10.4858 14.4416C11.5708 15.4975 12.5966 16.0966 13.3316 16.0966C13.5191 16.0966 13.6841 16.055 13.8225 15.9758C14.5133 15.5775 14.6358 14.1908 14.1591 12.3225C13.4175 12.4875 12.6675 12.6058 11.9108 12.6716C11.4756 13.2926 10.9995 13.8839 10.4858 14.4416Z" fill="#F2F2F2"/>
<path d="M14.65 7.24585L14.3208 7.16335C13.4567 6.95005 12.5765 6.80818 11.6892 6.73919L11.5275 6.72502L11.4342 6.59002C10.9299 5.85801 10.3667 5.16848 9.74999 4.52835L9.51415 4.28585L9.74999 4.04419C11.4833 2.26585 13.1383 1.56169 14.1692 2.15669C15.2208 2.76252 15.43 4.49835 14.7425 6.92085L14.65 7.24585ZM11.9108 6.06169C12.7058 6.13252 13.4592 6.25169 14.1592 6.40919C14.635 4.54085 14.5133 3.15669 13.8225 2.75835C13.1358 2.36085 11.8433 2.96919 10.4858 4.29252C10.9992 4.85085 11.4758 5.44085 11.9108 6.06169ZM6.66749 16.7917C6.37426 16.7959 6.0852 16.722 5.82999 16.5775C4.77749 15.9725 4.56915 14.235 5.25665 11.8125L5.34665 11.4867L5.67582 11.57C6.47915 11.7725 7.36415 11.915 8.30749 11.9925L8.46915 12.0084L8.56332 12.1417C9.06665 12.8734 9.62999 13.5642 10.2467 14.2059L10.4833 14.4475L10.2467 14.69C8.92748 16.0459 7.65582 16.7917 6.66749 16.7917ZM5.83999 12.3234C5.36499 14.1917 5.48665 15.5784 6.17665 15.9767C6.86415 16.3684 8.15249 15.7642 9.51415 14.4417C9.00078 13.8833 8.52396 13.2923 8.08665 12.6725C7.3309 12.6057 6.58038 12.489 5.83999 12.3234Z" fill="#F2F2F2"/>
<path d="M9.99999 12.7608C9.42749 12.7608 8.83999 12.7366 8.24999 12.6875L8.08666 12.6733L7.99249 12.5383C7.65978 12.0599 7.34674 11.5681 7.05415 11.0641C6.76373 10.5588 6.49379 10.042 6.24499 9.51497L6.17499 9.36747L6.24499 9.2183C6.49415 8.69164 6.76332 8.17497 7.05415 7.66997C7.34332 7.1733 7.65915 6.67664 7.99249 6.19497L8.08666 6.06164L8.24999 6.04664C9.41406 5.94914 10.5842 5.94914 11.7483 6.04664L11.91 6.06247L12.0042 6.1958C12.6707 7.1531 13.256 8.16439 13.7542 9.21914L13.8233 9.3683L13.7542 9.5158C13.2574 10.5713 12.672 11.5827 12.0042 12.5391L11.91 12.6741L11.7483 12.6883C11.16 12.7358 10.5717 12.7608 9.99999 12.7608ZM8.47165 12.0075C9.50082 12.085 10.4992 12.085 11.5275 12.0075C12.1016 11.1668 12.6119 10.2843 13.0542 9.36747C12.6134 8.44977 12.1031 7.56719 11.5275 6.72747C10.5104 6.64914 9.48876 6.64914 8.47165 6.72747C7.8956 7.56688 7.3852 8.4495 6.94499 9.36747C7.38822 10.2838 7.8985 11.1662 8.47165 12.0075Z" fill="#F2F2F2"/>
</svg>
