<svg width="20" height="20" viewBox="0 0 20 20" fill="none" xmlns="http://www.w3.org/2000/svg">
<path d="M15.4167 7.92501C14.7917 7.70976 14.2401 7.32275 13.825 6.80834C13.3676 6.2352 12.7851 5.77429 12.1221 5.46086C11.4591 5.14743 10.7333 4.98979 10 5.00001C9.01366 4.93015 8.03717 5.23438 7.26503 5.8521C6.49288 6.46981 5.98172 7.3557 5.83335 8.33334C6.12558 7.84438 6.5654 7.46073 7.08952 7.23761C7.61363 7.01448 8.19502 6.96339 8.75002 7.09167C9.37393 7.31318 9.92467 7.70245 10.3417 8.21667C10.8017 8.78524 11.3853 9.24139 12.0481 9.55041C12.7109 9.85944 13.4355 10.0132 14.1667 10C15.153 10.0699 16.1295 9.76564 16.9017 9.14792C17.6738 8.5302 18.185 7.64431 18.3334 6.66667C18.0464 7.16148 17.608 7.55093 17.0828 7.77751C16.5576 8.00409 15.9735 8.0558 15.4167 7.92501ZM4.58335 12.075C5.20831 12.2902 5.75995 12.6773 6.17502 13.1917C6.63248 13.7648 7.21497 14.2257 7.87794 14.5392C8.5409 14.8526 9.26677 15.0102 10 15C10.9864 15.0699 11.9629 14.7656 12.735 14.1479C13.5072 13.5302 14.0183 12.6443 14.1667 11.6667C13.8745 12.1556 13.4346 12.5393 12.9105 12.7624C12.3864 12.9855 11.805 13.0366 11.25 12.9083C10.6261 12.6868 10.0754 12.2976 9.65835 11.7833C9.19715 11.2162 8.61331 10.761 7.95078 10.4521C7.28824 10.1432 6.56427 9.98866 5.83335 10C4.84699 9.93015 3.87051 10.2344 3.09836 10.8521C2.32621 11.4698 1.81506 12.3557 1.66669 13.3333C1.95361 12.8385 2.39203 12.4491 2.91722 12.2225C3.4424 11.9959 4.02653 11.9442 4.58335 12.075Z" fill="#F2F2F2"/>
</svg>
