<svg width="20" height="20" viewBox="0 0 20 20" fill="none" xmlns="http://www.w3.org/2000/svg">
<path d="M16.0333 2.5H3.96667C3.57768 2.5 3.20463 2.65452 2.92958 2.92958C2.65452 3.20463 2.5 3.57768 2.5 3.96667V16.0333C2.5 16.4223 2.65452 16.7954 2.92958 17.0704C3.20463 17.3455 3.57768 17.5 3.96667 17.5H16.0333C16.2259 17.5 16.4167 17.4621 16.5946 17.3884C16.7725 17.3146 16.9342 17.2066 17.0704 17.0704C17.2066 16.9342 17.3146 16.7725 17.3884 16.5946C17.4621 16.4167 17.5 16.2259 17.5 16.0333V3.96667C17.5 3.77406 17.4621 3.58334 17.3884 3.4054C17.3146 3.22745 17.2066 3.06577 17.0704 2.92958C16.9342 2.79338 16.7725 2.68535 16.5946 2.61164C16.4167 2.53794 16.2259 2.5 16.0333 2.5ZM11.2 10.8333H9.325V16.2H7.83333V10.8333H5.95833V9.61667H11.2V10.8333ZM16.0333 15.2333C15.9127 15.4898 15.7183 15.7046 15.475 15.85C15.219 16.0075 14.9367 16.1176 14.6417 16.175C14.3127 16.2429 13.9776 16.2764 13.6417 16.275C13.298 16.2747 12.955 16.244 12.6167 16.1833C12.3291 16.1244 12.0494 16.0322 11.7833 15.9083V14.4833L11.7333 14.4333H11.7833V14.4917C12.034 14.6872 12.3157 14.8393 12.6167 14.9417C12.9172 15.0561 13.2367 15.1127 13.5583 15.1083C13.7264 15.1113 13.8942 15.0945 14.0583 15.0583C14.1816 15.0295 14.2997 14.9817 14.4083 14.9167C14.4934 14.8648 14.5648 14.7934 14.6167 14.7083C14.668 14.6115 14.6905 14.502 14.6817 14.3927C14.6728 14.2834 14.6329 14.179 14.5667 14.0917C14.4883 13.9818 14.3892 13.8884 14.275 13.8167C14.1363 13.7191 13.9884 13.6354 13.8333 13.5667L13.275 13.3333C12.833 13.1513 12.4414 12.8655 12.1333 12.5C11.8755 12.1892 11.7393 11.7954 11.75 11.3917C11.7403 11.085 11.8091 10.7809 11.95 10.5083C12.0844 10.2707 12.2728 10.0681 12.5 9.91667C12.7531 9.74827 13.0359 9.6295 13.3333 9.56667C13.6585 9.49183 13.9913 9.45547 14.325 9.45833C14.6288 9.45409 14.9325 9.47359 15.2333 9.51667C15.4836 9.55579 15.7293 9.62 15.9667 9.70833V11.0833C15.857 11.0051 15.7397 10.9381 15.6167 10.8833C15.4842 10.8263 15.3477 10.779 15.2083 10.7417C15.0748 10.7026 14.9382 10.6747 14.8 10.6583C14.6725 10.6463 14.5442 10.6463 14.4167 10.6583C14.2596 10.6557 14.1029 10.6725 13.95 10.7083C13.8246 10.7346 13.7038 10.7796 13.5917 10.8417C13.5042 10.8932 13.43 10.9646 13.375 11.05C13.3251 11.133 13.2992 11.2282 13.3 11.325C13.298 11.4284 13.327 11.53 13.3833 11.6167C13.4518 11.7113 13.5364 11.7931 13.6333 11.8583C13.7508 11.9519 13.8796 12.0303 14.0167 12.0917L14.5417 12.325C14.7831 12.4248 15.017 12.5418 15.2417 12.675C15.4392 12.7831 15.6191 12.9208 15.775 13.0833C15.9278 13.2314 16.0471 13.4104 16.125 13.6083C16.2049 13.8358 16.2444 14.0756 16.2417 14.3167C16.2357 14.6279 16.1647 14.9345 16.0333 15.2167V15.2333Z" fill="#F2F2F2"/>
</svg>
